<svg xmlns="http://www.w3.org/2000/svg" width="142" height="568" viewBox="0 0 142 568" fill="none">
  <path fill-rule="evenodd" fill="#e1e8ed" d="M0 0h142v142H0z"/>
  <path fill-rule="evenodd" fill="#CCD6DD" d="M0 142h142v142H0z"/>
  <path fill-rule="evenodd" fill="#e1e8ed" d="M0 284h142v142H0z"/>
  <path fill-rule="evenodd" fill="#CCD6DD" d="M0 426h142v142H0z"/>
  <svg y="-213" x="18" width="108" xmlns="http://www.w3.org/2000/svg" viewBox="0 0 36 36">
  <path fill="#DD2E44" d="M35.885 11.833c0-5.45-4.418-9.868-9.867-9.868-3.308 0-6.227 1.633-8.018 4.129-1.791-2.496-4.71-4.129-8.017-4.129-5.45 0-9.868 4.417-9.868 9.868 0 .772.098 1.52.266 2.241C1.751 22.587 11.216 31.568 18 34.034c6.783-2.466 16.249-11.447 17.617-19.959.17-.721.268-1.469.268-2.242"/>
</svg>

<svg y="-71" x="18" width="108" xmlns="http://www.w3.org/2000/svg" viewBox="0 0 36 36">
  <path fill="#77B255" d="M9.999 12a1 1 0 0 1-.446-.106c-4.38-2.19-7.484-7.526-8.501-10.578A.999.999 0 1 1 2.949.683c.877 2.632 3.688 7.517 7.499 9.422A1 1 0 0 1 9.999 12"/>
  <circle fill="#553788" cx="19" cy="29" r="7"/>
  <circle fill="#9266CC" cx="10" cy="15" r="7"/>
  <circle fill="#AA8DD8" cx="19" cy="12" r="7"/>
  <circle fill="#744EAA" cx="27" cy="18" r="7"/>
  <circle fill="#744EAA" cx="9" cy="26" r="7"/>
  <circle fill="#9266CC" cx="18" cy="21" r="7"/>
  <circle fill="#9266CC" cx="29" cy="29" r="7"/>
</svg>

<svg y="71" x="18" width="108" xmlns="http://www.w3.org/2000/svg" viewBox="0 0 36 36">
  <path fill="#BE1931" d="M 21.8028 6.9312 h -12.841 c -2.7086 0 -3.7073 -1.7556 -3.7073 -3.461 c 0 -1.7556 0.953 -3.461 3.7073 -3.461 h 18.1625 c 2.5582 0 3.6115 2.3074 3.6115 3.6115 c 0 1.0032 -0.5518 2.0566 -1.1537 3.3106 l -12.4442 25.2852 c -1.4045 2.8044 -1.9562 3.8122 -4.218 3.8122 c -2.7542 0 -4.1587 -2.1113 -4.1587 -3.5614 c 0 -0.6065 0.1505 -1.0579 0.497 -1.7556 z"/>
</svg>

<svg y="213" x="18" width="108" xmlns="http://www.w3.org/2000/svg" viewBox="0 0 36 36">
  <path fill="#5C913B" d="M11.405 3.339c6.48-1.275 8.453 1.265 11.655.084s.093 2.82-.745 3.508c-.84.688-8.141 4.809-11.307 3.298s-3.182-6.186.397-6.89"/>
  <path fill="#77B255" d="M15.001 16a1 1 0 0 1-.801-.4c-.687-.916-1.308-1.955-1.965-3.056C9.967 8.749 7.396 4.446.783 2.976a1 1 0 1 1 .434-1.952C8.671 2.68 11.599 7.581 13.952 11.519c.63 1.054 1.224 2.049 1.848 2.881a1 1 0 0 1-.799 1.6"/>
  <path fill="#FFCC4D" d="M34.3 31.534c.002-.017-.003-.028-.003-.043 2.774-5.335 2.647-15.113-3.346-21.107-5.801-5.8-13.68-5.821-18.767-4.067-1.579.614-2.917.066-3.815.965-.881.881-.351 2.719-.714 3.819-3.169 5.202-3.405 13.025 2.688 19.117 4.962 4.962 10.438 6.842 19.98 4.853q.003-.002.008-.002c1.148-.218 2.95.523 3.566-.094 1.085-1.085.309-2.358.403-3.441"/>
  <path fill="#77B255" d="M8.208 6.583s-4.27-.59-6.857 4.599c-2.587 5.188.582 9.125.29 12.653-.293 3.53 1.566 1.265 2.621-.445s4.23-4.895 4.938-9.269c.707-4.376-.07-6.458-.992-7.538"/>
</svg>

</svg>